Coordinates
version=1
nRows=8
nColumns=36
inDegrees=yes

Units are S.I. units (second, meters, Newtons, ...)
If the header above contains a line with 'inDegrees', this indicates whether rotational values are in degrees (yes) or radians (no).

endheader
time	pelvis_tilt	pelvis_list	pelvis_rotation	pelvis_tx	pelvis_ty	pelvis_tz	hip_flexion_r	hip_adduction_r	hip_rotation_r	knee_angle_r	knee_angle_r_beta	ankle_angle_r	subtalar_angle_r	mtp_angle_r	hip_flexion_l	hip_adduction_l	hip_rotation_l	knee_angle_l	knee_angle_l_beta	ankle_angle_l	subtalar_angle_l	mtp_angle_l	lumbar_extension	lumbar_bending	lumbar_rotation	arm_flex_r	arm_add_r	arm_rot_r	elbow_flex_r	pro_sup_r	arm_flex_l	arm_add_l	arm_rot_l	elbow_flex_l	pro_sup_l
     29.80000000	     -4.71477201	      3.89305836	    179.10381195	      0.61037736	      1.03360632	      0.72603481	     -8.57639002	      3.06299866	     -0.66414243	     34.91449672	      0.60937292	      8.18936596	     -6.74189964	     -7.49999987	     14.28582978	     -4.08352787	      5.28958214	      8.46257303	      0.14769976	    -11.68423330	     -8.32505892	     -7.49999987	    -17.59599909	      1.70443315	      7.45630040	     12.23661032	    -20.07204582	     10.01863007	     33.53770180	     97.35034642	     10.06450398	     -8.78838614	     14.68584125	     14.69359886	    103.34055809
     29.81666670	     -4.94904711	      3.07789804	    178.74730925	      0.60377255	      1.02863669	      0.73233435	     -6.63849148	      1.52470256	     -0.91882579	     40.96473234	      0.71496946	      6.88244938	     -7.07511013	     -7.49999987	     13.92096237	     -3.08347689	      5.00690800	     10.30519540	      0.17985959	    -11.50817415	     -9.02320022	     -7.49999987	    -17.81745022	      0.58242449	      7.41666632	     12.24903171	    -19.70053133	      9.99974135	     33.28245414	     97.50985389	     10.28504034	     -9.09590342	     14.59221654	     14.85834772	    103.51262598
     29.83333330	     -5.12591972	      2.09448525	    178.61458594	      0.59671814	      1.02419608	      0.74231449	     -4.44112513	     -0.29384534	     -1.23389403	     47.33134089	      0.82608774	      4.81262591	     -7.43389647	     -7.49999987	     13.56460984	     -1.77726479	      4.66937942	     12.28313445	      0.21438114	    -10.75684096	     -9.74991141	     -7.49999987	    -17.81987506	     -0.55858456	      7.13748050	     11.99843424	    -19.26974133	      9.71843104	     32.65786516	     97.74740864	     10.29854309	     -9.38032830	     14.63513895	     15.12965994	    103.80782111
     29.85000000	     -5.75279659	      1.04431037	    178.66916611	      0.59428867	      1.02209862	      0.75117433	     -2.60798954	     -2.20393145	     -1.34641793	     53.53085320	      0.93428964	      2.33303342	     -7.79090029	     -7.49999987	     12.62621181	     -0.27358190	      4.23259332	     14.02740351	      0.24482438	     -9.69649185	    -10.36354020	     -7.49999987	    -18.39579809	     -1.61085365	      6.56311001	     11.59709550	    -18.96313785	      9.56170438	     32.37631413	     97.69539628	     10.43297082	     -9.65853169	     14.68871925	     15.43609351	    103.72609645
     29.86666670	     -5.43512261	      0.09837625	    178.59868989	      0.59603081	      1.02050641	      0.75611921	      0.54971922	     -3.92465508	     -1.00230614	     59.54065610	      1.03918049	      0.28533312	     -7.69158280	     -7.49999987	     12.59573279	      1.06870464	      3.37375396	     15.30724335	      0.26716180	     -8.66354382	    -10.57807763	     -7.49999987	    -17.79974272	     -2.45202127	      6.23733916	     10.90348047	    -18.35364410	      8.01139801	     31.41338898	     99.80797836	     10.37821032	    -10.03350330	     15.47503938	     16.04090289	    106.09195493
     29.88333330	     -5.31196143	     -0.56315067	    178.67767335	      0.60018499	      1.02028352	      0.75940211	      3.56725766	     -5.21353493	     -0.59173372	     64.73739613	      1.12988071	     -1.08898273	     -7.16401415	     -7.49999987	     12.28033867	      2.12947676	      2.73793758	     16.15588780	      0.28197344	     -7.66317266	    -10.69253927	     -7.49999987	    -17.65537627	     -2.93130066	      5.64276417	     10.30113478	    -18.00450727	      7.45235600	     31.06003651	     99.83758943	     10.46035317	    -10.27214026	     15.32810383	     16.60071943	    105.87815474
     29.90000000	     -5.20128902	     -0.99368951	    178.73850539	      0.60519659	      1.02159675	      0.76240622	      6.78169861	     -6.08305521	     -0.02225289	     69.20526256	      1.20785969	     -1.54016124	     -6.52256186	     -7.49999987	     11.86277300	      2.89404431	      2.14866746	     16.68978140	      0.29129164	     -6.80132150	    -10.68403981	     -7.49999987	    -17.70734040	     -3.15479643	      4.94846195	      9.89327969	    -17.71616731	      7.08278244	     30.94933560	     99.82716543	     10.70835523	    -10.50698195	     15.30140002	     17.15474432	    105.76521574
     29.91666670	     -4.72467441	     -1.11269380	    178.87872804	      0.60923377	      1.02385215	      0.76462842	     10.68308223	     -6.45817977	      0.53431910	     73.00763350	      1.27422358	     -0.69359716	     -6.02682357	     -7.49999987	     11.95265555	      3.21293804	      1.52966823	     17.47912206	      0.30506823	     -5.53178921	    -10.05440188	     -7.49999987	    -17.48813676	     -3.04141123	      4.17127077	      9.62660229	    -17.28339975	      6.41580038	     30.62487640	     98.87378212	     10.96452231	    -10.71222882	     15.11240032	     17.88757644	    105.14358649
